<?xml version="1.0" encoding="UTF-8" standalone="no"?>
<svg
   xmlns:dc="http://purl.org/dc/elements/1.1/"
   xmlns:cc="http://creativecommons.org/ns#"
   xmlns:rdf="http://www.w3.org/1999/02/22-rdf-syntax-ns#"
   xmlns:svg="http://www.w3.org/2000/svg"
   xmlns="http://www.w3.org/2000/svg"
   xmlns:sodipodi="http://sodipodi.sourceforge.net/DTD/sodipodi-0.dtd"
   xmlns:inkscape="http://www.inkscape.org/namespaces/inkscape"
   version="1.1"
   id="Layer_1"
   x="0px"
   y="0px"
   width="453px"
   height="113px"
   viewBox="0 0 453 113"
   enable-background="new 0 0 453 113"
   xml:space="preserve"
   sodipodi:docname="logo.svg"
   inkscape:version="1.0.2 (e86c870879, 2021-01-15, custom)"><metadata
   id="metadata91"><rdf:RDF><cc:Work
       rdf:about=""><dc:format>image/svg+xml</dc:format><dc:type
         rdf:resource="http://purl.org/dc/dcmitype/StillImage" /></cc:Work></rdf:RDF></metadata><defs
   id="defs89" /><sodipodi:namedview
   pagecolor="#ffffff"
   bordercolor="#666666"
   borderopacity="1"
   objecttolerance="10"
   gridtolerance="10"
   guidetolerance="10"
   inkscape:pageopacity="0"
   inkscape:pageshadow="2"
   inkscape:window-width="1920"
   inkscape:window-height="1017"
   id="namedview87"
   showgrid="false"
   inkscape:zoom="2.4348786"
   inkscape:cx="143.33364"
   inkscape:cy="56.5"
   inkscape:window-x="-8"
   inkscape:window-y="-8"
   inkscape:window-maximized="1"
   inkscape:current-layer="g84" />
<g
   id="g84">
	
		
	
	
		
	
		
	
		
	
		
	
		
	
		
	
		
	
		
	
		
	
		
	
	
	
	
	
		
	
		
	
		<g
   id="g112"
   inkscape:export-xdpi="96"
   inkscape:export-ydpi="96"><polygon
     fill-rule="evenodd"
     clip-rule="evenodd"
     fill="none"
     stroke="#4266B0"
     stroke-width="1.4173"
     stroke-linecap="round"
     stroke-linejoin="round"
     stroke-miterlimit="22.9256"
     points="   4.818,29.841 15.392,74.135 59.114,63.342 49.563,19.32  "
     id="polygon2" /><polygon
     fill-rule="evenodd"
     clip-rule="evenodd"
     fill="#F8991D"
     points="53.182,66.091 63.865,110.864 108.038,99.954    98.388,55.455  "
     id="polygon4" /><path
     fill-rule="evenodd"
     clip-rule="evenodd"
     fill="none"
     stroke="#4266B0"
     stroke-width="1.417"
     stroke-linecap="round"
     stroke-linejoin="round"
     stroke-miterlimit="22.9256"
     d="   M19.2,70.457l-0.487-1.834l0.509-3.259L16.753,54.44l-0.225-0.815l-0.255-0.564l-0.576-1.27l1.351-0.332l-1.104-6.857l-0.115-0.722   l6.78-1.663l2.716,7.318l2.021-0.496l-1.98-12.461l8.695-2.108l3.896,11.96l2.143-0.519l-1.179-7.697l6.927-1.698l2.835,7.201   l1.297-0.334l-0.113,1.182l-0.034,0.646l0.19,0.717l2.922,11.129l1.914,2.665l0.468,1.89l-1.309,0.333l-8.07,0.56l-3.924,0.341   c-0.001,0-0.017,0.001-0.021,0.002h-0.002l-10.606,2.699l-3.571,1.601l-7.337,2.987L19.2,70.457L19.2,70.457z M42.583,38.935   l-0.107,0.178l-0.044,0.195c-0.046,0.209-0.006,0.373,0.018,0.538c0.016,0.105,0.062,0.211,0.074,0.315   c0.024,0.208,0.077,0.397,0.083,0.591c-0.061,0.101-0.079,0.146-0.147,0.242c-0.031,0.051-0.065,0.081-0.105,0.166   c-0.04,0.084-0.133,0.284-0.145,0.44c-0.037,0.143-0.004,0.402,0.057,0.615c0.057,0.199,0.13,0.363,0.165,0.402   c0.05,0.059,0.188,0.184,0.258,0.229c0.057,0.037,0.116,0.083,0.158,0.118c0.09,0.075,0.323,0.174,0.424,0.185   c0.512,0.059,0.855-0.038,1.183-0.268l0.186-0.19c0.197-0.188,0.344-0.502,0.348-0.684c0.009-0.383-0.03-0.708-0.35-1.07   c-0.157-0.178-0.325-0.307-0.531-0.416c-0.078-0.042-0.17-0.08-0.194-0.099c-0.116-0.148-0.3-0.808-0.401-0.997   c-0.024-0.045-0.038-0.102-0.076-0.168c-0.037-0.068-0.098-0.124-0.136-0.172c-0.056-0.072-0.109-0.129-0.162-0.169   c-0.042-0.032-0.154-0.092-0.192-0.097c-0.047-0.004-0.102-0.004-0.16,0.008C42.712,38.842,42.618,38.876,42.583,38.935   L42.583,38.935z M30.514,39.771l-0.135,0.226l-0.085,0.36c-0.043,0.179-0.001,0.344,0.053,0.564   c0.032,0.131,0.078,0.269,0.094,0.399c0.03,0.263,0.096,0.502,0.105,0.747c-0.077,0.127-0.099,0.186-0.187,0.307   c-0.039,0.064-0.093,0.123-0.133,0.209c-0.06,0.128-0.168,0.359-0.183,0.558c-0.047,0.18-0.005,0.509,0.072,0.776   c0.072,0.252,0.165,0.459,0.208,0.51c0.064,0.073,0.238,0.231,0.326,0.288c0.072,0.046,0.147,0.105,0.2,0.15   c0.114,0.094,0.409,0.219,0.536,0.233c0.648,0.074,1.082-0.048,1.496-0.338l0.234-0.241c0.25-0.237,0.435-0.634,0.44-0.864   c0.012-0.484-0.038-0.896-0.442-1.354c-0.199-0.226-0.412-0.389-0.672-0.526c-0.099-0.052-0.215-0.102-0.244-0.125   c-0.146-0.187-0.429-1.113-0.508-1.261c-0.08-0.148-0.044-0.122-0.096-0.213c-0.044-0.078-0.124-0.156-0.172-0.218   c-0.071-0.09-0.137-0.163-0.204-0.214c-0.053-0.04-0.189-0.116-0.243-0.122c-0.054-0.006-0.129-0.006-0.202,0.011   C30.678,39.654,30.558,39.697,30.514,39.771L30.514,39.771z M19.333,44.687l-0.132,0.202l-0.052,0.223   c-0.032,0.138,0.007,0.312,0.048,0.485c0.024,0.104,0.062,0.212,0.074,0.316c0.024,0.208,0.072,0.398,0.08,0.592   c-0.061,0.101-0.084,0.14-0.153,0.235c-0.031,0.051-0.065,0.102-0.102,0.17c-0.044,0.108-0.126,0.285-0.139,0.443   c-0.037,0.143-0.004,0.402,0.057,0.614c0.057,0.2,0.148,0.356,0.178,0.4c0.053,0.076,0.185,0.186,0.245,0.231   c0.061,0.045,0.116,0.083,0.158,0.118c0.089,0.075,0.323,0.174,0.424,0.185c0.512,0.058,0.855-0.038,1.183-0.268l0.196-0.186   c0.198-0.188,0.333-0.506,0.337-0.688c0.009-0.383-0.03-0.708-0.35-1.071c-0.157-0.179-0.326-0.308-0.532-0.416   c-0.078-0.041-0.169-0.081-0.193-0.099c-0.116-0.148-0.3-0.809-0.401-0.998c-0.024-0.044-0.035-0.096-0.076-0.168   c-0.035-0.062-0.076-0.107-0.129-0.177c-0.053-0.07-0.116-0.125-0.168-0.164c-0.042-0.032-0.154-0.092-0.192-0.097   c-0.047-0.005-0.102-0.004-0.16,0.008C19.459,44.595,19.37,44.629,19.333,44.687z"
     id="path6" /><polygon
     fill-rule="evenodd"
     clip-rule="evenodd"
     fill="none"
     stroke="#4266B0"
     stroke-width="1.417"
     stroke-linecap="round"
     stroke-linejoin="round"
     stroke-miterlimit="22.9256"
     points="   22.609,42.218 23.506,40.566 23.096,38.903 21.054,39.403 21.223,41.246 20.242,41.486 19.57,39.767 16.919,40.425 17.176,42.238    16.174,42.484 15.445,40.787 13.499,41.265 13.918,42.974 15.829,43.881  "
     id="polygon8" /><polygon
     fill-rule="evenodd"
     clip-rule="evenodd"
     fill="none"
     stroke="#4266B0"
     stroke-width="1.417"
     stroke-linecap="round"
     stroke-linejoin="round"
     stroke-miterlimit="22.9256"
     points="   45.848,36.519 46.659,34.818 46.23,33.234 44.223,33.726 44.376,35.498 43.395,35.738 42.74,34.086 40.096,34.736 40.329,36.49    39.327,36.735 38.618,35.104 36.668,35.582 37.072,37.227 38.921,38.216  "
     id="polygon10" /><polygon
     fill-rule="evenodd"
     clip-rule="evenodd"
     fill="none"
     stroke="#4266B0"
     stroke-width="1.417"
     stroke-linecap="round"
     stroke-linejoin="round"
     stroke-miterlimit="22.9256"
     points="   34.061,34.471 34.883,31.582 34.294,29.223 31.826,29.844 32.11,32.797 31.017,33.068 29.936,30.295 26.871,31.046 27.293,33.943    26.149,34.222 25.204,31.478 22.701,32.09 23.25,34.384 25.369,36.586  "
     id="polygon12" /><path
     fill-rule="evenodd"
     clip-rule="evenodd"
     fill="none"
     stroke="#4266B0"
     stroke-width="1.4168"
     stroke-linecap="round"
     stroke-linejoin="round"
     stroke-miterlimit="22.9256"
     d="   M42.005,62.85L39.6,52.818c-0.054-0.125-0.703-0.642-0.818-0.72c-0.154-0.14-0.518-0.312-0.695-0.414   c-0.102-0.06-0.26-0.158-0.375-0.201c-0.669-0.247-1.275-0.403-2.245-0.446c-0.33-0.015-0.693,0.005-1.043,0.046   c-0.895,0.106-1.801,0.345-2.586,0.794l-0.374,0.225c-0.435,0.192-1.405,1.128-1.616,1.428l-0.16,0.234   c-0.239,0.348-0.362,0.683-0.525,1.087c-0.07,0.177-0.161,0.637-0.189,0.764l2.425,9.932L42.005,62.85z"
     id="path14" /><path
     fill-rule="evenodd"
     clip-rule="evenodd"
     fill="none"
     stroke="#4266B0"
     stroke-width="1.417"
     stroke-linecap="round"
     stroke-linejoin="round"
     stroke-miterlimit="22.9256"
     d="   M42.005,62.85l3.925-0.34l-2.99-12.078l-0.408,0.084l-0.406,0.117c-0.733,0.21-1.651,0.977-1.815,1.211   c-0.032,0.046-0.198,0.259-0.357,0.477c-0.17,0.23-0.333,0.466-0.354,0.5L42.005,62.85z"
     id="path16" /><polygon
     fill-rule="evenodd"
     clip-rule="evenodd"
     fill="none"
     stroke="#4266B0"
     stroke-width="1.417"
     stroke-linecap="round"
     stroke-linejoin="round"
     stroke-miterlimit="22.9256"
     points="   9.707,34.103 12.014,33.553 12.877,30.997 14.893,32.897 17.157,32.342 16.349,34.563 18.179,36.213 15.832,36.778 15.054,39.093    13.123,37.447 10.723,37.991 11.607,35.631  "
     id="polygon18" /><path
     fill-rule="evenodd"
     clip-rule="evenodd"
     fill="none"
     stroke="#4266B0"
     stroke-width="1.417"
     stroke-linecap="round"
     stroke-linejoin="round"
     stroke-miterlimit="22.9256"
     d="   M40.604,22.974c0.211,0.105,0.466,0.253,0.664,0.373c0.102,0.063,0.202,0.139,0.288,0.194c0.122,0.077,0.268,0.167,0.355,0.234   c0.104,0.083,0.222,0.172,0.398,0.345c0.176,0.174,0.321,0.349,0.367,0.404c0.173,0.205,0.386,0.616,0.484,0.796   c0.306,0.561,0.408,1.211,0.525,1.851c-0.009,0.054,0.031,0.256,0.034,0.387c0.004,0.169-0.022,0.352-0.014,0.384   c-0.029,0.048-0.042,0.298-0.095,0.48c-0.08,0.266-0.136,0.377-0.146,0.458c-0.077,0.153-0.175,0.321-0.262,0.474   c-0.037,0.061-0.159,0.25-0.199,0.333c-0.092,0.132-0.296,0.431-0.468,0.576c-0.171,0.145-0.626,0.451-0.882,0.565   c-0.153,0.084-0.275,0.138-0.468,0.192l-0.252,0.067l0.25,0.064c0.039,0.006,0.116,0.018,0.213,0.022   c0.09,0.005,0.199,0.011,0.317,0.018c0.11,0.007,0.213,0.005,0.294,0.005c0.081-0.001,0.265-0.007,0.29-0.006   c0.645-0.027,1.314-0.374,1.685-0.62c0.077-0.029,0.557-0.434,0.653-0.538c0.2-0.218,0.221-0.211,0.375-0.459   c0.154-0.249,0.345-0.549,0.451-0.833l0.168-0.506l0.059-0.295l0.016-0.351c-0.053-1.147-0.058-1.736-0.889-3.121   c-0.027-0.044-0.171-0.199-0.287-0.333c-0.131-0.153-0.303-0.297-0.354-0.333c-0.132-0.13-0.457-0.321-0.598-0.406   c-0.089-0.08-0.428-0.193-0.572-0.256l-0.478-0.13l-0.593-0.063C41.5,22.916,41.03,22.947,40.604,22.974z"
     id="path20" /><path
     fill-rule="evenodd"
     clip-rule="evenodd"
     fill="none"
     stroke="#4266B0"
     stroke-width="1.417"
     stroke-linecap="round"
     stroke-linejoin="round"
     stroke-miterlimit="22.9256"
     d="   M31.398,65.548l-2.429-9.928l-0.611-0.346l-0.59-0.231l-0.562-0.123c-0.165-0.03-0.316-0.059-0.48-0.071   c-0.101-0.008-0.205-0.013-0.304-0.014l-0.289,0.007c-0.18,0.002-0.35,0.019-0.532,0.041C25.398,54.914,25.198,54.953,25,55   l1.603,6.481l1.351,5.611L31.398,65.548z"
     id="path22" /><polygon
     fill-rule="evenodd"
     clip-rule="evenodd"
     fill="#F8991D"
     stroke="#FFFFFF"
     stroke-width="1.3326"
     stroke-miterlimit="22.9256"
     points="   53.785,66.303 98.14,55.873 103.546,81.071 94.749,93.919  "
     id="polygon24" /><polygon
     fill-rule="evenodd"
     clip-rule="evenodd"
     fill="#4266B0"
     points="103.707,26.022 98.252,35.307 105.775,35.287  "
     id="polygon26" /><path
     fill-rule="evenodd"
     clip-rule="evenodd"
     fill="#4266B0"
     d="M80.606,32.752c-1.245-0.446-2.19-1.188-2.843-2.225   c-0.652-1.037-0.978-2.316-0.978-3.842c0-2.348,0.693-4.126,2.079-5.33c1.387-1.204,3.443-1.805,6.171-1.805h6.579V22.7h-2.796   c0.455,0.575,0.791,1.176,1.006,1.815c0.216,0.634,0.322,1.344,0.322,2.128c0,1.622-0.422,3.009-1.263,4.158   c-0.844,1.145-1.979,1.865-3.402,2.16c-0.312,0.07-0.729,0.155-1.253,0.252c-1.781,0.323-2.672,0.854-2.672,1.596   c0,0.741,1.271,1.402,3.819,1.993c0.621,0.14,1.111,0.247,1.47,0.333c1.602,0.392,2.819,1.048,3.641,1.972   c0.827,0.924,1.24,2.101,1.24,3.524c0,1.972-0.703,3.477-2.107,4.514c-1.405,1.037-3.448,1.553-6.125,1.553   c-2.617,0-4.619-0.5-6-1.499c-1.382-1-2.071-2.456-2.071-4.357c0-1.354,0.405-2.477,1.213-3.358   c0.808-0.881,1.992-1.488,3.558-1.821c-0.634-0.339-1.098-0.698-1.387-1.08c-0.294-0.387-0.441-0.816-0.441-1.294   c0-0.5,0.18-0.957,0.537-1.359C79.261,33.521,79.83,33.129,80.606,32.752L80.606,32.752z M74.646,19.551h-4.068l-7.139,9.063   l8.089,10.327h4.518l-8.337-10.536L74.646,19.551L74.646,19.551z M60.049,12.091l-5.888,1.421l9.889,44.492l37.298-9.039   l7.09-1.703l-1.855-8.322l-14.288,0.003l-0.002-0.527l5.288-8.741l3.994-6.555l-8.899-0.001l0.002-3.576l9.604,0.015L98.569,2.77   l-35.232,8.535l-0.002,27.641l-3.3,0.004L60.049,12.091z"
     id="path28" /><path
     fill-rule="evenodd"
     clip-rule="evenodd"
     fill="#4266B0"
     d="M83.494,22.823c-1.019,0-1.846,0.344-2.484,1.038   c-0.638,0.693-0.96,1.579-0.96,2.659c0,1.134,0.304,2.021,0.914,2.655c0.611,0.639,1.451,0.956,2.53,0.956   c1.088,0,1.946-0.322,2.581-0.967c0.633-0.645,0.95-1.526,0.95-2.644c0-1.08-0.331-1.966-0.997-2.659   C85.367,23.167,84.522,22.823,83.494,22.823z"
     id="path30" /><path
     fill-rule="evenodd"
     clip-rule="evenodd"
     fill="#4266B0"
     d="M78.65,42.552c0,0.952,0.408,1.666,1.221,2.149   c0.813,0.483,2.006,0.726,3.586,0.726c1.542,0,2.75-0.236,3.622-0.715c0.873-0.473,1.309-1.127,1.309-1.95   c0-0.908-0.491-1.595-1.478-2.057c-0.988-0.462-2.465-0.694-4.439-0.694c-1.125,0-2.043,0.242-2.755,0.726   C79.003,41.22,78.65,41.821,78.65,42.552z"
     id="path32" /><polygon
     fill-rule="evenodd"
     clip-rule="evenodd"
     fill="#F8991D"
     stroke="#FFFFFF"
     stroke-width="1.3326"
     stroke-miterlimit="22.9256"
     points="   55.208,67.234 96.331,65.046 98.164,88.752 94.749,93.717  "
     id="polygon34" /><polygon
     fill-rule="evenodd"
     clip-rule="evenodd"
     fill="#F8991D"
     stroke="#FFFFFF"
     stroke-width="1.3326"
     stroke-miterlimit="22.9256"
     points="   57.403,68.742 93.053,72.486 91.254,91.394  "
     id="polygon36" /><polygon
     fill-rule="evenodd"
     clip-rule="evenodd"
     fill="#F8991D"
     stroke="#FFFFFF"
     stroke-width="1.3326"
     stroke-miterlimit="22.9256"
     points="   59.996,70.465 88.919,79.243 86.144,88.087  "
     id="polygon38" /></g>
	
</g>
</svg>
